<!-- 统一 24px 线性图标：设置 -->
<svg xmlns="http://www.w3.org/2000/svg" viewBox="0 0 24 24" fill="none" stroke="currentColor" stroke-width="2" stroke-linecap="round" stroke-linejoin="round"><circle cx="12" cy="12" r="3"/><path d="M19.1 13.7a1.7 1.7 0 0 0 .3 1.9l.1.1-2 2-.1-.1a1.7 1.7 0 0 0-1.9-.3 1.7 1.7 0 0 0-1 1.5v.2h-3v-.2a1.7 1.7 0 0 0-1-1.5 1.7 1.7 0 0 0-1.9.3l-.1.1-2-2 .1-.1a1.7 1.7 0 0 0 .3-1.9 1.7 1.7 0 0 0-1.5-1H5v-3h.2a1.7 1.7 0 0 0 1.5-1 1.7 1.7 0 0 0-.3-1.9l-.1-.1 2-2 .1.1a1.7 1.7 0 0 0 1.9.3 1.7 1.7 0 0 0 1-1.5V5h3v.2a1.7 1.7 0 0 0 1 1.5 1.7 1.7 0 0 0 1.9-.3l.1-.1 2 2-.1.1a1.7 1.7 0 0 0-.3 1.9 1.7 1.7 0 0 0 1.5 1h.2v3h-.2a1.7 1.7 0 0 0-1.5 1Z"/></svg>
